<svg xmlns="http://www.w3.org/2000/svg" width="47.144" height="42" viewBox="0 0 47.144 42">
  <g id="Layer_2" data-name="Layer 2" transform="translate(5.26 0.115)">
    <g id="invisible_box" data-name="invisible box">
      <rect id="Rectangle_6" data-name="Rectangle 6" width="42" height="42" transform="translate(-0.115 -0.115)" fill="none"/>
    </g>
    <g id="icons_Q2" data-name="icons Q2" transform="translate(1.74 3.481)">
      <path id="Path_9" data-name="Path 9" d="M38.548,11.832H35.068V5.74A1.74,1.74,0,0,0,33.327,4h-8.7a1.74,1.74,0,0,0-1.74,1.74v6.091H19.4V5.74A1.74,1.74,0,0,0,17.664,4h-8.7a1.74,1.74,0,0,0-1.74,1.74v6.091H3.74A1.74,1.74,0,0,0,2,13.572v23.5a1.74,1.74,0,0,0,1.74,1.74H8.091a1.74,1.74,0,0,0,1.74-2A1.827,1.827,0,0,0,8,35.327H5.481V15.313H36.808V35.327H18.534a1.74,1.74,0,0,0-1.74,2,1.827,1.827,0,0,0,1.827,1.479H38.548a1.74,1.74,0,0,0,1.74-1.74v-23.5A1.74,1.74,0,0,0,38.548,11.832Zm-27.846,0V7.481h5.221v4.351Zm15.664,0V7.481h5.221v4.351Z" transform="translate(-9 -4)" fill="#3065cb"/>
    </g>
  </g>
</svg>
