<svg id="Facebook" xmlns="http://www.w3.org/2000/svg" width="37.226" height="37.226" viewBox="0 0 37.226 37.226">
  <path id="Path_32" data-name="Path 32" d="M37.226,18.613A18.613,18.613,0,1,0,15.7,37V23.993H10.979v-5.38H15.7v-4.1c0-4.664,2.777-7.242,7.031-7.242a28.627,28.627,0,0,1,4.166.364v4.581H24.553a2.69,2.69,0,0,0-3.032,2.908v3.49h5.162l-.825,5.38H21.521V37A18.616,18.616,0,0,0,37.226,18.613Z" fill="#1877f2"/>
  <path id="Path_33" data-name="Path 33" d="M29.036,26.1l.825-5.38H24.7v-3.49a2.69,2.69,0,0,1,3.032-2.908h2.348V9.739a28.627,28.627,0,0,0-4.166-.364c-4.253,0-7.031,2.577-7.031,7.242v4.1H14.156V26.1h4.726V39.105a18.878,18.878,0,0,0,5.817,0V26.1Z" transform="translate(-3.177 -2.104)" fill="#fff"/>
</svg>
