<svg id="Instagram" xmlns="http://www.w3.org/2000/svg" width="37.226" height="37.226" viewBox="0 0 37.226 37.226">
  <path id="Path_36" data-name="Path 36" d="M0,18.613A18.613,18.613,0,1,1,18.613,37.226,18.613,18.613,0,0,1,0,18.613Z" fill="#fff"/>
  <g id="Group_34" data-name="Group 34" transform="translate(8.686 8.686)">
    <path id="Path_37" data-name="Path 37" d="M21.128,11.2c-2.7,0-3.034.012-4.093.06a7.284,7.284,0,0,0-2.409.461,5.078,5.078,0,0,0-2.9,2.9,7.251,7.251,0,0,0-.461,2.409c-.047,1.059-.06,1.4-.06,4.093s.012,3.033.06,4.092a7.3,7.3,0,0,0,.461,2.409,5.08,5.08,0,0,0,2.9,2.9,7.292,7.292,0,0,0,2.41.461c1.059.048,1.4.06,4.093.06s3.034-.012,4.092-.06a7.3,7.3,0,0,0,2.411-.461,5.086,5.086,0,0,0,2.9-2.9,7.357,7.357,0,0,0,.461-2.409c.048-1.059.06-1.4.06-4.092s-.012-3.034-.06-4.093a7.354,7.354,0,0,0-.461-2.409,5.079,5.079,0,0,0-2.9-2.9,7.307,7.307,0,0,0-2.411-.461c-1.059-.048-1.4-.06-4.093-.06ZM20.8,12.989h.331c2.651,0,2.965.01,4.011.057a5.5,5.5,0,0,1,1.843.342,3.29,3.29,0,0,1,1.884,1.884,5.485,5.485,0,0,1,.342,1.843c.048,1.047.058,1.361.058,4.01s-.01,2.964-.058,4.01a5.491,5.491,0,0,1-.342,1.843,3.292,3.292,0,0,1-1.884,1.883,5.476,5.476,0,0,1-1.843.342c-1.046.048-1.361.058-4.011.058s-2.965-.01-4.011-.058a5.507,5.507,0,0,1-1.843-.342,3.289,3.289,0,0,1-1.885-1.883,5.485,5.485,0,0,1-.342-1.843c-.048-1.046-.057-1.361-.057-4.012s.009-2.964.057-4.01a5.494,5.494,0,0,1,.342-1.843,3.29,3.29,0,0,1,1.885-1.885,5.485,5.485,0,0,1,1.843-.342c.916-.041,1.271-.054,3.121-.056v0Zm4.439,2.839a1.191,1.191,0,0,1,1.191-1.191h0a1.191,1.191,0,1,1-1.191,1.191Zm-4.108.2a5.1,5.1,0,1,0,5.1,5.1A5.1,5.1,0,0,0,21.128,16.029Zm3.309,5.1a3.309,3.309,0,1,0-3.309,3.309A3.309,3.309,0,0,0,24.437,21.127Z" transform="translate(-11.2 -11.2)" fill-rule="evenodd"/>
  </g>
</svg>
