<svg id="LinkedIN" xmlns="http://www.w3.org/2000/svg" width="37.226" height="37.226" viewBox="0 0 37.226 37.226">
  <path id="Path_38" data-name="Path 38" d="M0,18.613A18.613,18.613,0,1,1,18.613,37.226,18.613,18.613,0,0,1,0,18.613Z" fill="#0077b5"/>
  <path id="Path_39" data-name="Path 39" d="M15.945,14.189a2.2,2.2,0,0,1-2.387,2.191h-.027A2.2,2.2,0,1,1,13.586,12,2.191,2.191,0,0,1,15.945,14.189Zm-.278,3.92V30.783H11.449V18.11ZM30.88,30.783V23.517c0-3.893-2.081-5.7-4.857-5.7a4.188,4.188,0,0,0-3.8,2.093v-1.8H18c.056,1.189,0,12.674,0,12.674h4.219V23.706a2.881,2.881,0,0,1,.139-1.028,2.308,2.308,0,0,1,2.164-1.54c1.527,0,2.137,1.162,2.137,2.865v6.781Z" transform="translate(-2.514 -2.693)" fill="#fff" fill-rule="evenodd"/>
</svg>
