<svg width="248" height="58" viewBox="0 0 248 58" fill="none" xmlns="http://www.w3.org/2000/svg">
<path d="M190.57 38.4492H179.874C176.646 38.4492 174.373 37.4905 173.065 35.5811C171.764 33.6716 171.56 31.0156 172.461 27.6053C172.83 26.2066 173.363 24.9179 174.053 23.747C174.741 22.5761 175.596 21.5074 176.622 20.5409C177.845 19.378 179.162 18.545 180.58 18.0421C181.99 17.5393 183.753 17.2877 185.853 17.2877H190.625L191.997 12.1094H197.552L190.57 38.4492ZM186.213 33.923L189.403 21.869H186.04C183.784 21.869 182.061 22.3405 180.862 23.2912C179.67 24.242 178.777 25.8215 178.189 28.0296C177.625 30.1749 177.657 31.6914 178.283 32.5793C178.911 33.4752 180.281 33.923 182.397 33.923H186.213ZM159.038 17.2956H168.403C170.589 17.2956 172.023 17.6885 172.697 18.4822C173.371 19.2758 173.441 20.6589 172.923 22.6233L171.991 26.1594H166.671L167.392 23.4327C167.612 22.6077 167.612 22.0575 167.392 21.7746C167.173 21.4918 166.546 21.3504 165.503 21.3504H163.545L159.015 38.4492H153.445L159.038 17.2956ZM137.78 17.2956H149.197C152.08 17.2956 154.071 17.9557 155.183 19.2837C156.296 20.6117 156.5 22.5841 155.81 25.1929L152.3 38.4492H137.318C135.226 38.4492 133.745 37.9228 132.899 36.8619C132.052 35.8011 131.888 34.3002 132.405 32.3515C133.04 29.9391 134.144 28.2182 135.727 27.1731C137.302 26.128 139.59 25.6093 142.599 25.6093H149.933L150.075 25.0829C150.412 23.8256 150.279 22.9377 149.675 22.4347C149.071 21.924 147.819 21.6726 145.93 21.6726H136.621L137.78 17.2956ZM140.711 34.1981H147.701L148.86 29.8291H142.286C140.985 29.8291 140.037 30.0019 139.441 30.3555C138.854 30.7092 138.446 31.33 138.211 32.1943C138.015 32.9408 138.078 33.4594 138.392 33.7502C138.721 34.0488 139.489 34.1981 140.711 34.1981ZM100.451 12.1172H106.022L101.963 27.4559L113.607 17.2956H120.659L108.145 27.6445L115.064 38.4492H107.573L101.775 28.1789L99.0558 38.4492H93.4846L100.451 12.1172ZM87.4039 33.923H93.3278L92.129 38.457H84.5596C82.6477 38.457 81.1196 38.2528 79.9992 37.8599C78.8707 37.4591 77.9697 36.8148 77.2957 35.9268C76.567 34.9603 76.1205 33.7816 75.9402 32.3829C75.7522 30.992 75.8619 29.5147 76.2771 27.9667C76.7082 26.3322 77.3898 24.8079 78.3066 23.3856C79.2313 21.9632 80.3125 20.7767 81.5585 19.8259C82.7181 18.938 83.9719 18.2936 85.3275 17.8929C86.6752 17.4999 88.2893 17.2956 90.1622 17.2956H97.7316L96.5248 21.869H90.601C87.9838 21.869 86.0562 22.3247 84.826 23.2362C83.5958 24.14 82.679 25.7194 82.0834 27.9667C81.7388 29.2554 81.6604 30.332 81.8405 31.1806C82.013 32.0293 82.4597 32.7129 83.1726 33.2316C83.5252 33.483 83.9641 33.6638 84.489 33.766C85.0063 33.868 85.9779 33.923 87.4039 33.923ZM75.3368 27.8803C74.4592 31.1964 72.7511 33.8524 70.2044 35.8326C67.6735 37.8127 64.688 38.8028 61.2716 38.8028C57.8631 38.8028 55.4026 37.8127 53.8902 35.8246C52.378 33.8366 52.0723 31.1884 52.9422 27.8803C53.8198 24.5564 55.5358 21.9004 58.106 19.9123C60.6683 17.9165 63.6536 16.9184 67.0701 16.9184C70.463 16.9184 72.9077 17.9165 74.4043 19.9123C75.9089 21.9082 76.2223 24.5642 75.3368 27.8803ZM58.8033 27.8803C58.2705 29.8919 58.3253 31.4636 58.9679 32.5873C59.6026 33.7108 60.7702 34.2767 62.4549 34.2767C64.116 34.2767 65.5812 33.7108 66.8272 32.5873C68.0809 31.4636 68.9664 29.8997 69.4992 27.8803C70.032 25.8686 69.9772 24.297 69.3269 23.1812C68.6764 22.0654 67.509 21.5074 65.8321 21.5074C64.163 21.5074 62.7056 22.0733 61.4596 23.1969C60.2138 24.3206 59.3284 25.8844 58.8033 27.8803ZM40.6556 18.5372H44.5893L46.2895 12.1094H51.8608L50.1605 18.5372H56.0451L54.9324 22.7569H49.0477L47.1123 30.0569C46.697 31.6207 46.6735 32.7129 47.0497 33.3258C47.4258 33.931 48.2799 34.2374 49.6041 34.2374H51.8922L50.7717 38.457H45.6863C43.6333 38.457 42.1993 37.8913 41.4079 36.7441C40.6165 35.5968 40.5068 33.9624 41.0709 31.8328L43.4765 22.7647H39.543L40.6556 18.5372Z" fill="#005F8F"/>
<path d="M118.464 4.54297H123.573H124.655L128.236 19.5831L139.927 4.54297C161.115 4.54297 182.625 4.56655 203.85 4.56655L202.487 9.7135H142.497L129.897 25.6336L126.527 38.3636H120.486L123.855 25.6336L119.781 9.68992H28.1253C26.5189 9.68992 25.8842 9.99638 24.9752 10.5936C24.0663 11.1987 22.7342 17.1313 22.3895 18.4358C22.1074 19.4887 22.2249 20.2667 22.7264 20.7932C23.2201 21.3118 24.1055 21.579 25.3671 21.579H33.3674C36.6742 21.579 38.8682 22.2077 39.9339 23.457C41.0074 24.7143 39.8711 29.2955 39.0954 32.2265C38.3118 35.189 36.9249 37.3734 34.9424 38.7643C32.96 40.1552 30.2331 40.8545 26.7618 40.8545H5.70703L7.07045 35.7154H27.804C29.5278 35.7154 30.1783 35.464 31.0245 34.9611C31.8551 34.4581 32.4349 33.6331 32.7406 32.4623C33.0619 31.26 34.2451 27.9046 33.7357 27.4017C33.2264 26.8909 32.192 26.6395 30.617 26.6395H23.4786C20.164 26.6395 17.9309 25.9794 16.7398 24.6515C15.5644 23.3234 15.3528 21.2254 16.1052 18.365C16.9201 15.3005 19.0201 8.07904 20.9946 6.66461C22.9772 5.25019 25.7197 4.54297 29.2301 4.54297H118.464Z" fill="#005F8F"/>
<path fill-rule="evenodd" clip-rule="evenodd" d="M4.4392 37.1998L3.86719 39.353H27.1709C29.2943 39.353 32.2172 39.0778 34.2858 37.6241C36.1743 36.2962 37.1066 34.151 37.6239 32.218C37.9138 31.1335 38.188 30.0491 38.4152 28.9647C38.5877 28.1475 39.1441 25.1222 38.666 24.5642C37.5611 23.2677 34.8264 23.0634 32.985 23.0634H24.9847C23.6525 23.0634 22.3206 22.812 21.49 21.9397C20.6437 21.0597 20.5496 19.7866 20.9101 18.4273C21.2469 17.1464 21.5369 15.8733 21.8974 14.5847C22.2735 13.2253 22.9787 10.3335 24.3657 9.41417C25.878 8.41621 26.928 8.18047 28.5343 8.18047H121.091L125.455 25.2479L122.384 36.8462H125.44L128.511 25.2401L142.005 8.19619H205.13L205.701 6.04311H144.332L144.348 6.01953H140.767L127.595 22.6862L123.293 6.03525H28.8321C26.7007 6.03525 23.7466 6.30241 21.678 7.77971C20.8475 8.43977 19.4918 12.1566 19.1628 13.1153C18.5671 14.8518 18.05 16.6121 17.5877 18.3565C17.1018 20.1796 16.8904 22.254 18.003 23.5113C19.2254 24.8864 21.8661 25.1379 23.8563 25.1379H30.9948C32.4053 25.1379 34.0351 25.3186 34.9441 26.2223C36.0645 27.3302 34.6462 30.7957 34.2074 32.4615C33.8235 33.923 33.0007 35.3061 31.5432 36.1783C30.0545 37.0742 28.9104 37.2077 27.3903 37.2077H4.4392V37.1998Z" fill="#D1D3D4"/>
<path d="M117.668 51.8062L118.922 45.8027H121.421C121.852 45.8027 122.181 45.8499 122.393 45.9521C122.612 46.0541 122.792 46.2193 122.926 46.4629C123.067 46.7064 123.137 46.9736 123.137 47.2722C123.137 47.5158 123.082 47.7751 122.988 48.0265C122.887 48.2859 122.761 48.4981 122.604 48.6631C122.448 48.8281 122.299 48.9538 122.134 49.0403C121.978 49.1267 121.805 49.1895 121.625 49.2288C121.241 49.3231 120.857 49.3624 120.465 49.3624H118.969L118.459 51.7984H117.668V51.8062ZM119.118 48.6867H120.434C120.943 48.6867 121.319 48.6317 121.562 48.5215C121.805 48.4115 121.993 48.2387 122.134 48.0187C122.275 47.7908 122.354 47.555 122.354 47.2958C122.354 47.0992 122.314 46.9422 122.236 46.8164C122.158 46.6907 122.056 46.6043 121.915 46.5414C121.774 46.4864 121.507 46.4549 121.116 46.4549H119.58L119.118 48.6867ZM123.294 50.156C123.294 49.3074 123.545 48.6081 124.038 48.0501C124.446 47.5944 124.987 47.3586 125.653 47.3586C126.178 47.3586 126.601 47.5236 126.914 47.8536C127.235 48.1837 127.392 48.6237 127.392 49.1817C127.392 49.6846 127.29 50.1482 127.087 50.5725C126.883 51.0047 126.601 51.3347 126.225 51.5626C125.856 51.7905 125.465 51.9084 125.049 51.9084C124.712 51.9084 124.407 51.8376 124.132 51.6883C123.858 51.5469 123.647 51.3427 123.498 51.0755C123.365 50.8083 123.294 50.5018 123.294 50.156ZM124.031 50.0854C124.031 50.4939 124.132 50.8083 124.328 51.0125C124.524 51.2247 124.775 51.3269 125.073 51.3269C125.229 51.3269 125.386 51.2955 125.543 51.2325C125.7 51.1697 125.841 51.0755 125.974 50.9419C126.107 50.8083 126.217 50.6589 126.311 50.4939C126.405 50.329 126.483 50.1482 126.538 49.9518C126.624 49.6846 126.663 49.4252 126.663 49.1738C126.663 48.7809 126.562 48.4745 126.366 48.2623C126.17 48.0423 125.919 47.9401 125.621 47.9401C125.386 47.9401 125.175 47.9951 124.987 48.1051C124.798 48.2151 124.626 48.3801 124.469 48.5923C124.313 48.8045 124.203 49.0559 124.132 49.3388C124.07 49.606 124.031 49.8574 124.031 50.0854ZM128.638 51.8062L128.184 47.4608H128.897L129.093 49.4095L129.171 50.5097C129.179 50.5882 129.186 50.7533 129.194 51.0047C129.273 50.7297 129.343 50.5097 129.406 50.3604C129.461 50.211 129.555 49.9988 129.68 49.7238L130.714 47.453H131.522L131.663 49.6216C131.686 49.9518 131.694 50.3918 131.702 50.9419C131.835 50.5725 132.062 50.0696 132.368 49.4174L133.3 47.445H134.037L131.921 51.7905H131.153L130.989 49.2445C130.981 49.0873 130.973 48.7809 130.965 48.3173C130.856 48.6081 130.722 48.9223 130.573 49.2602L129.429 51.7905H128.638V51.8062ZM137.03 50.329L137.751 50.3996C137.649 50.7611 137.406 51.0989 137.038 51.4212C136.67 51.7434 136.223 51.9005 135.706 51.9005C135.385 51.9005 135.087 51.8298 134.82 51.6805C134.554 51.5312 134.35 51.3111 134.209 51.0283C134.068 50.7453 133.998 50.4232 133.998 50.0618C133.998 49.5902 134.107 49.1267 134.327 48.6787C134.546 48.2309 134.828 47.9008 135.181 47.6808C135.526 47.4608 135.91 47.3586 136.309 47.3586C136.826 47.3586 137.242 47.5236 137.547 47.8458C137.853 48.168 138.01 48.6081 138.01 49.1659C138.01 49.3781 137.994 49.5982 137.955 49.8182H134.766C134.758 49.9046 134.75 49.9754 134.75 50.046C134.75 50.4546 134.844 50.7611 135.032 50.9811C135.22 51.1933 135.447 51.3033 135.714 51.3033C135.965 51.3033 136.215 51.2169 136.458 51.0519C136.709 50.8789 136.897 50.6433 137.03 50.329ZM134.883 49.2524H137.312C137.312 49.1738 137.32 49.1188 137.32 49.0873C137.32 48.7181 137.226 48.4273 137.046 48.2309C136.858 48.0344 136.623 47.9322 136.333 47.9322C136.019 47.9322 135.729 48.0423 135.471 48.2623C135.204 48.4823 135.009 48.8123 134.883 49.2524ZM138.495 51.8062L139.404 47.4608H140.055L139.875 48.3487C140.094 48.0108 140.313 47.7672 140.533 47.6022C140.744 47.445 140.964 47.3586 141.191 47.3586C141.34 47.3586 141.52 47.4136 141.731 47.5158L141.426 48.1994C141.301 48.1051 141.16 48.058 141.003 48.058C140.744 48.058 140.478 48.1994 140.204 48.4901C139.929 48.7809 139.718 49.2995 139.561 50.046L139.193 51.7905H138.495V51.8062ZM144.466 50.329L145.188 50.3996C145.086 50.7611 144.842 51.0989 144.473 51.4212C144.106 51.7434 143.659 51.9005 143.143 51.9005C142.821 51.9005 142.523 51.8298 142.257 51.6805C141.991 51.5312 141.787 51.3111 141.645 51.0283C141.504 50.7453 141.434 50.4232 141.434 50.0618C141.434 49.5902 141.544 49.1267 141.762 48.6787C141.982 48.2309 142.264 47.9008 142.617 47.6808C142.961 47.4608 143.345 47.3586 143.745 47.3586C144.262 47.3586 144.678 47.5236 144.984 47.8458C145.29 48.168 145.446 48.6081 145.446 49.1659C145.446 49.3781 145.43 49.5982 145.39 49.8182H142.202C142.193 49.9046 142.186 49.9754 142.186 50.046C142.186 50.4546 142.28 50.7611 142.468 50.9811C142.657 51.1933 142.883 51.3033 143.15 51.3033C143.401 51.3033 143.652 51.2169 143.894 51.0519C144.138 50.8789 144.325 50.6433 144.466 50.329ZM142.319 49.2524H144.748C144.748 49.1738 144.757 49.1188 144.757 49.0873C144.757 48.7181 144.662 48.4273 144.482 48.2309C144.293 48.0344 144.058 47.9322 143.769 47.9322C143.456 47.9322 143.165 48.0423 142.908 48.2623C142.641 48.4823 142.444 48.8123 142.319 49.2524ZM148.854 51.1775C148.432 51.6648 147.992 51.9084 147.53 51.9084C147.122 51.9084 146.778 51.7591 146.504 51.4527C146.229 51.1461 146.096 50.7061 146.096 50.1246C146.096 49.5982 146.205 49.1109 146.418 48.6709C146.637 48.2309 146.904 47.9087 147.233 47.6886C147.561 47.4686 147.883 47.3586 148.212 47.3586C148.752 47.3586 149.16 47.618 149.435 48.1444L149.928 45.8105H150.665L149.418 51.814H148.736L148.854 51.1775ZM146.824 49.9832C146.824 50.2896 146.856 50.5254 146.911 50.6983C146.973 50.8711 147.075 51.0205 147.217 51.1305C147.357 51.2483 147.53 51.3033 147.734 51.3033C148.07 51.3033 148.369 51.1305 148.643 50.7768C149.011 50.3132 149.191 49.7396 149.191 49.0559C149.191 48.7101 149.098 48.4429 148.925 48.2465C148.745 48.0501 148.518 47.9558 148.243 47.9558C148.063 47.9558 147.906 47.9951 147.757 48.0737C147.617 48.1523 147.468 48.2859 147.326 48.4745C147.186 48.6631 147.06 48.9067 146.966 49.1974C146.88 49.5038 146.824 49.7632 146.824 49.9832ZM152.897 51.8062L154.151 45.8027H154.888L154.442 47.948C154.677 47.7358 154.888 47.5786 155.076 47.4922C155.264 47.4058 155.468 47.3586 155.672 47.3586C156.078 47.3586 156.416 47.508 156.682 47.8144C156.957 48.113 157.09 48.5609 157.09 49.1345C157.09 49.5196 157.035 49.8732 156.926 50.1875C156.815 50.5097 156.682 50.7768 156.518 50.9889C156.353 51.2091 156.189 51.3819 156.016 51.5077C155.845 51.6412 155.672 51.7355 155.492 51.7984C155.312 51.8612 155.139 51.8926 154.974 51.8926C154.692 51.8926 154.442 51.8141 154.222 51.6648C154.002 51.5155 153.838 51.2797 153.713 50.9733L153.54 51.7984H152.897V51.8062ZM153.995 50.0224L153.987 50.164C153.987 50.5332 154.073 50.8161 154.253 51.0125C154.433 51.2091 154.653 51.3033 154.912 51.3033C155.17 51.3033 155.405 51.2091 155.625 51.0283C155.845 50.8475 156.016 50.5647 156.158 50.1796C156.298 49.7946 156.369 49.441 156.369 49.1188C156.369 48.7573 156.282 48.4665 156.102 48.2701C155.93 48.0658 155.711 47.9637 155.452 47.9637C155.186 47.9637 154.943 48.0658 154.715 48.2701C154.495 48.4745 154.308 48.7967 154.16 49.2209C154.049 49.5352 153.995 49.8024 153.995 50.0224ZM157.27 53.4799L157.317 52.7806C157.474 52.8199 157.615 52.8435 157.763 52.8435C157.912 52.8435 158.03 52.812 158.125 52.7413C158.241 52.647 158.374 52.482 158.516 52.2306L158.751 51.8062L158.03 47.445H158.758L159.088 49.6452C159.151 50.0774 159.206 50.5097 159.253 50.9497L161.196 47.453H161.964L159.198 52.3798C158.931 52.8592 158.696 53.1813 158.485 53.3307C158.281 53.4879 158.038 53.5663 157.772 53.5663C157.608 53.5663 157.435 53.5429 157.27 53.4799Z" fill="black"/>
<path d="M242.737 50.8103V51.6355C242.737 51.769 242.706 51.8633 242.651 51.9261C242.595 51.989 242.517 52.0204 242.424 52.0204C242.329 52.0204 242.26 51.989 242.204 51.9261C242.149 51.8633 242.118 51.7611 242.118 51.6355V50.6453C242.118 50.4882 242.111 50.3702 242.102 50.2838C242.095 50.1974 242.063 50.1266 242.016 50.0716C241.969 50.0166 241.898 49.9852 241.796 49.9852C241.601 49.9852 241.467 50.056 241.405 50.1974C241.343 50.3388 241.311 50.5353 241.311 50.7946V51.6355C241.311 51.7611 241.279 51.8633 241.225 51.9261C241.17 51.989 241.092 52.0283 241.005 52.0283C240.912 52.0283 240.841 51.9969 240.786 51.9261C240.73 51.8633 240.699 51.7611 240.699 51.6355V49.8594C240.699 49.7416 240.723 49.6552 240.779 49.5923C240.832 49.5295 240.896 49.498 240.981 49.498C241.068 49.498 241.13 49.5295 241.185 49.5845C241.241 49.6395 241.272 49.718 241.272 49.8202V49.883C241.374 49.7574 241.483 49.663 241.609 49.6002C241.727 49.5373 241.86 49.5059 242 49.5059C242.149 49.5059 242.282 49.5373 242.393 49.6002C242.502 49.663 242.588 49.7574 242.659 49.883C242.761 49.7574 242.87 49.663 242.988 49.6002C243.106 49.5373 243.23 49.5059 243.372 49.5059C243.536 49.5059 243.677 49.5373 243.794 49.608C243.912 49.6788 244.007 49.773 244.061 49.891C244.109 50.001 244.14 50.1816 244.14 50.4174V51.6275C244.14 51.7611 244.109 51.8555 244.054 51.9183C243.998 51.9812 243.92 52.0126 243.827 52.0126C243.732 52.0126 243.661 51.9812 243.607 51.9104C243.552 51.8476 243.521 51.7455 243.521 51.6197V50.5903C243.521 50.4568 243.512 50.3468 243.505 50.2682C243.497 50.1896 243.465 50.1188 243.419 50.0638C243.372 50.0088 243.294 49.9852 243.199 49.9852C243.121 49.9852 243.043 50.0088 242.972 50.056C242.901 50.103 242.846 50.166 242.808 50.2524C242.761 50.3624 242.737 50.551 242.737 50.8103ZM239.665 50.771C239.665 50.5196 239.611 50.3232 239.5 50.1816C239.391 50.0402 239.249 49.9696 239.07 49.9696C238.952 49.9696 238.85 50.001 238.756 50.0638C238.67 50.1266 238.599 50.221 238.552 50.3388C238.505 50.4646 238.483 50.606 238.483 50.771C238.483 50.9361 238.505 51.0775 238.552 51.1953C238.599 51.3133 238.67 51.4075 238.756 51.4703C238.843 51.5333 238.952 51.5647 239.07 51.5647C239.249 51.5647 239.398 51.4939 239.5 51.3525C239.611 51.2111 239.665 51.0146 239.665 50.771ZM240.268 50.771C240.268 50.9596 240.237 51.1247 240.182 51.2817C240.128 51.4389 240.049 51.5725 239.94 51.6825C239.838 51.7925 239.704 51.879 239.564 51.9419C239.415 52.0047 239.249 52.0283 239.07 52.0283C238.89 52.0283 238.725 51.9969 238.576 51.934C238.435 51.8711 238.301 51.7847 238.199 51.6747C238.09 51.5647 238.012 51.4311 237.957 51.2739C237.902 51.1167 237.871 50.9517 237.871 50.7632C237.871 50.5746 237.902 50.4018 237.957 50.2446C238.012 50.0874 238.09 49.9538 238.199 49.8438C238.301 49.7338 238.428 49.6473 238.576 49.5845C238.725 49.5216 238.89 49.498 239.07 49.498C239.249 49.498 239.415 49.5295 239.564 49.5923C239.713 49.6552 239.838 49.7416 239.948 49.8516C240.049 49.9616 240.135 50.0952 240.19 50.2524C240.246 50.4096 240.268 50.5824 240.268 50.771ZM237.502 51.2583C237.502 51.3367 237.479 51.4153 237.433 51.5097C237.385 51.5961 237.322 51.6825 237.229 51.7611C237.134 51.8397 237.025 51.9026 236.884 51.9497C236.743 51.9969 236.585 52.0204 236.414 52.0204C236.045 52.0204 235.755 51.9104 235.544 51.6825C235.332 51.4625 235.23 51.1561 235.23 50.7789C235.23 50.5274 235.277 50.2996 235.371 50.103C235.466 49.9066 235.606 49.7574 235.786 49.6473C235.967 49.5373 236.186 49.4902 236.436 49.4902C236.594 49.4902 236.735 49.5138 236.867 49.5609C236.993 49.608 237.111 49.6709 237.197 49.7416C237.291 49.8124 237.353 49.8988 237.4 49.9774C237.448 50.0638 237.471 50.1424 237.471 50.2132C237.471 50.2838 237.448 50.3468 237.393 50.4018C237.338 50.4568 237.275 50.4803 237.197 50.4803C237.151 50.4803 237.103 50.4646 237.071 50.441C237.04 50.4174 237 50.3702 236.962 50.3152C236.891 50.1974 236.813 50.111 236.734 50.056C236.656 50.001 236.554 49.9696 236.429 49.9696C236.249 49.9696 236.108 50.0402 235.999 50.1816C235.888 50.3232 235.834 50.5196 235.834 50.771C235.834 50.8889 235.85 50.9911 235.872 51.0931C235.904 51.1875 235.943 51.2739 235.99 51.3447C236.045 51.4153 236.108 51.4625 236.179 51.5019C236.249 51.5411 236.336 51.5569 236.421 51.5569C236.538 51.5569 236.641 51.5255 236.727 51.4703C236.813 51.4153 236.891 51.3211 236.954 51.2033C236.993 51.1325 237.033 51.0775 237.071 51.0381C237.111 50.9989 237.166 50.9753 237.229 50.9753C237.3 50.9753 237.362 51.0067 237.409 51.0617C237.479 51.1325 237.502 51.1953 237.502 51.2583Z" fill="#3777BC"/>
<path d="M229.679 52.2148L229.781 51.9634L228.441 48.4587C228.356 48.2544 228.316 48.113 228.316 48.0187C228.316 47.9244 228.34 47.8301 228.387 47.7516C228.433 47.673 228.496 47.6022 228.582 47.555C228.669 47.508 228.755 47.4764 228.84 47.4764C228.998 47.4764 229.115 47.5314 229.193 47.6336C229.272 47.7358 229.342 47.8851 229.406 48.0815L230.33 50.8633L231.207 48.278C231.278 48.0658 231.34 47.9008 231.395 47.783C231.451 47.665 231.513 47.5866 231.575 47.5394C231.638 47.5 231.724 47.4764 231.842 47.4764C231.92 47.4764 232.006 47.5 232.077 47.5472C232.155 47.5944 232.21 47.6572 232.25 47.7358C232.288 47.8144 232.312 47.893 232.312 47.9794C232.304 48.0344 232.288 48.1051 232.257 48.1994C232.234 48.2937 232.202 48.3959 232.17 48.4901L230.745 52.3484C230.62 52.6864 230.503 52.9535 230.385 53.1499C230.267 53.3463 230.11 53.4957 229.914 53.5979C229.719 53.6999 229.459 53.7551 229.131 53.7551C228.809 53.7551 228.574 53.7157 228.409 53.6449C228.254 53.5743 228.167 53.4407 228.167 53.2521C228.167 53.1185 228.207 53.0242 228.285 52.9535C228.363 52.8828 228.473 52.8514 228.622 52.8514C228.676 52.8514 228.74 52.8592 228.793 52.8749C228.864 52.8906 228.927 52.8985 228.973 52.8985C229.1 52.8985 229.202 52.8749 229.272 52.8435C229.342 52.8042 229.406 52.7414 229.468 52.6392C229.539 52.5448 229.601 52.4034 229.679 52.2148ZM225.832 47.5866H225.949V46.9107C225.949 46.73 225.958 46.5885 225.965 46.4864C225.973 46.3843 226.005 46.2899 226.043 46.2193C226.082 46.1407 226.145 46.0777 226.231 46.0307C226.309 45.9835 226.396 45.9599 226.498 45.9599C226.639 45.9599 226.757 46.0149 226.875 46.1171C226.953 46.1877 226.999 46.2743 227.015 46.3843C227.039 46.4864 227.046 46.6357 227.046 46.8243V47.5944H227.446C227.603 47.5944 227.721 47.6336 227.799 47.7044C227.877 47.783 227.923 47.8772 227.923 47.9951C227.923 48.1444 227.869 48.2544 227.752 48.3173C227.634 48.3801 227.47 48.4115 227.25 48.4115H227.046V50.4861C227.046 50.6589 227.055 50.8003 227.062 50.8947C227.077 50.9889 227.108 51.0675 227.157 51.1225C227.211 51.1855 227.297 51.2091 227.415 51.2091C227.477 51.2091 227.563 51.2011 227.674 51.1775C227.783 51.1541 227.869 51.1383 227.932 51.1383C228.018 51.1383 228.096 51.1775 228.167 51.2483C228.238 51.3191 228.269 51.4133 228.269 51.5155C228.269 51.6962 228.174 51.8376 227.979 51.932C227.783 52.0262 227.508 52.0812 227.148 52.0812C226.804 52.0812 226.553 52.0184 226.373 51.9005C226.2 51.7826 226.082 51.6177 226.027 51.4055C225.973 51.1933 225.949 50.9183 225.949 50.5647V48.3959H225.809C225.652 48.3959 225.527 48.3565 225.448 48.278C225.361 48.1994 225.323 48.1051 225.323 47.9872C225.323 47.8694 225.37 47.7751 225.456 47.6966C225.543 47.618 225.667 47.5866 225.832 47.5866ZM224.108 46.9578C223.96 46.9578 223.826 46.9107 223.716 46.8164C223.607 46.7221 223.551 46.5807 223.551 46.4079C223.551 46.2507 223.607 46.1171 223.716 46.0149C223.826 45.9127 223.951 45.8577 224.1 45.8577C224.242 45.8577 224.366 45.9049 224.477 45.9991C224.586 46.0935 224.641 46.2271 224.641 46.4079C224.641 46.5807 224.586 46.7143 224.484 46.8164C224.382 46.9028 224.257 46.9578 224.108 46.9578ZM224.648 48.1208V51.3897C224.648 51.6177 224.594 51.7905 224.492 51.9005C224.39 52.0184 224.257 52.0734 224.1 52.0734C223.944 52.0734 223.811 52.0105 223.709 51.8926C223.607 51.7748 223.56 51.6019 223.56 51.3819V48.1523C223.56 47.9244 223.607 47.7594 223.709 47.6494C223.811 47.5394 223.935 47.4764 224.1 47.4764C224.264 47.4764 224.39 47.5314 224.492 47.6494C224.594 47.7672 224.648 47.9244 224.648 48.1208ZM219.602 48.1051V48.2387C219.799 47.9794 220.002 47.783 220.23 47.665C220.456 47.5394 220.723 47.4844 221.013 47.4844C221.302 47.4844 221.553 47.5472 221.789 47.6808C222.015 47.8066 222.188 47.9951 222.297 48.2309C222.368 48.3723 222.415 48.5137 222.439 48.6787C222.463 48.8359 222.47 49.0403 222.47 49.2917V51.3977C222.47 51.6255 222.423 51.7984 222.321 51.9084C222.219 52.0262 222.095 52.0812 221.93 52.0812C221.764 52.0812 221.631 52.0184 221.531 51.9005C221.429 51.7826 221.382 51.6098 221.382 51.3897V49.5038C221.382 49.1345 221.334 48.8437 221.232 48.6473C221.131 48.4509 220.934 48.3487 220.636 48.3487C220.441 48.3487 220.268 48.4115 220.104 48.5295C219.948 48.6473 219.83 48.8123 219.751 49.0245C219.697 49.1895 219.673 49.5038 219.673 49.9674V51.3819C219.673 51.6098 219.617 51.7826 219.517 51.8926C219.415 52.0105 219.282 52.0656 219.124 52.0656C218.968 52.0656 218.835 52.0026 218.74 51.8848C218.638 51.7669 218.591 51.5941 218.591 51.3741V48.1051C218.591 47.893 218.638 47.728 218.725 47.6258C218.818 47.5236 218.936 47.4686 219.093 47.4686C219.187 47.4686 219.273 47.4922 219.351 47.5394C219.43 47.5866 219.493 47.6572 219.54 47.7516C219.579 47.8537 219.602 47.9715 219.602 48.1051ZM216.5 51.4369V51.2877C216.367 51.4605 216.233 51.6019 216.085 51.7198C215.943 51.8376 215.787 51.9241 215.614 51.979C215.441 52.034 215.254 52.0656 215.034 52.0656C214.768 52.0656 214.533 52.0105 214.322 51.8926C214.109 51.7826 213.953 51.6255 213.836 51.4213C213.702 51.1775 213.631 50.8397 213.631 50.384V48.1523C213.631 47.9244 213.678 47.7594 213.78 47.6416C213.882 47.5314 214.007 47.4764 214.173 47.4764C214.337 47.4764 214.47 47.5314 214.572 47.6494C214.673 47.7594 214.721 47.9322 214.721 48.1523V49.9596C214.721 50.219 214.744 50.439 214.784 50.6197C214.823 50.8004 214.901 50.9339 215.01 51.0361C215.121 51.1383 215.27 51.1855 215.457 51.1855C215.645 51.1855 215.818 51.1305 215.974 51.0125C216.138 50.9025 216.256 50.7533 216.327 50.5725C216.389 50.4154 216.42 50.0618 216.42 49.5196V48.1523C216.42 47.9244 216.469 47.7594 216.571 47.6494C216.671 47.5394 216.804 47.4764 216.97 47.4764C217.135 47.4764 217.259 47.5314 217.361 47.6416C217.463 47.7516 217.51 47.9244 217.51 48.1523V51.4213C217.51 51.6333 217.463 51.7984 217.37 51.9084C217.275 52.0184 217.15 52.0656 217.001 52.0656C216.853 52.0656 216.726 52.0105 216.633 51.9005C216.547 51.7905 216.5 51.6412 216.5 51.4369ZM210.161 49.8574V51.3583C210.161 51.5941 210.106 51.7748 210.004 51.8926C209.902 52.0105 209.761 52.0734 209.595 52.0734C209.431 52.0734 209.298 52.0105 209.196 51.8926C209.095 51.7748 209.04 51.5941 209.04 51.3583V49.5666C209.04 49.2838 209.031 49.0638 209.009 48.9067C208.993 48.7495 208.938 48.6237 208.86 48.5215C208.773 48.4195 208.647 48.3723 208.467 48.3723C208.107 48.3723 207.872 48.4981 207.763 48.7573C207.653 49.0088 207.59 49.3781 207.59 49.8496V51.3741C207.59 51.6098 207.535 51.7826 207.433 51.9084C207.332 52.0262 207.198 52.089 207.026 52.089C206.862 52.089 206.729 52.0262 206.618 51.9084C206.516 51.7905 206.462 51.6098 206.462 51.3741V48.1444C206.462 47.9322 206.509 47.7672 206.602 47.6572C206.697 47.5472 206.822 47.4922 206.979 47.4922C207.128 47.4922 207.253 47.5472 207.355 47.6494C207.457 47.7516 207.504 47.893 207.504 48.0737V48.1837C207.692 47.948 207.896 47.7751 208.107 47.665C208.327 47.555 208.562 47.5 208.829 47.5C209.102 47.5 209.338 47.555 209.533 47.673C209.729 47.783 209.894 47.9558 210.019 48.1837C210.199 47.9558 210.403 47.783 210.614 47.673C210.827 47.563 211.061 47.508 211.312 47.508C211.609 47.508 211.869 47.5708 212.08 47.6886C212.299 47.8066 212.457 47.9872 212.566 48.2073C212.659 48.4115 212.707 48.7337 212.707 49.1738V51.3819C212.707 51.6177 212.652 51.7984 212.55 51.9162C212.448 52.0341 212.308 52.097 212.142 52.097C211.978 52.097 211.844 52.0341 211.735 51.9162C211.633 51.7984 211.578 51.6177 211.578 51.3819V49.4802C211.578 49.2367 211.571 49.0403 211.547 48.8987C211.524 48.7495 211.476 48.6315 211.382 48.5295C211.296 48.4273 211.163 48.3801 210.983 48.3801C210.843 48.3801 210.701 48.4273 210.576 48.5137C210.45 48.6001 210.348 48.7181 210.279 48.8673C210.199 49.0403 210.161 49.3781 210.161 49.8574ZM202.912 49.8574V51.3583C202.912 51.5941 202.857 51.7748 202.755 51.8926C202.654 52.0105 202.513 52.0734 202.348 52.0734C202.184 52.0734 202.051 52.0105 201.949 51.8926C201.847 51.7748 201.791 51.5941 201.791 51.3583V49.5666C201.791 49.2838 201.784 49.0638 201.76 48.9067C201.744 48.7495 201.689 48.6237 201.611 48.5215C201.525 48.4195 201.4 48.3723 201.22 48.3723C200.859 48.3723 200.624 48.4981 200.514 48.7573C200.405 49.0088 200.342 49.3781 200.342 49.8496V51.3741C200.342 51.6098 200.288 51.7826 200.186 51.9084C200.084 52.0262 199.95 52.089 199.777 52.089C199.613 52.089 199.48 52.0262 199.371 51.9084C199.269 51.7905 199.213 51.6098 199.213 51.3741V48.1444C199.213 47.9322 199.26 47.7672 199.355 47.6572C199.449 47.5472 199.573 47.4922 199.731 47.4922C199.88 47.4922 200.006 47.5472 200.106 47.6494C200.208 47.7516 200.256 47.893 200.256 48.0737V48.1837C200.444 47.948 200.648 47.7751 200.859 47.665C201.078 47.555 201.314 47.5 201.58 47.5C201.855 47.5 202.089 47.555 202.286 47.673C202.481 47.783 202.646 47.9558 202.77 48.1837C202.952 47.9558 203.155 47.783 203.367 47.673C203.578 47.563 203.813 47.508 204.064 47.508C204.362 47.508 204.62 47.5708 204.832 47.6886C205.051 47.8066 205.208 47.9872 205.317 48.2073C205.412 48.4115 205.459 48.7337 205.459 49.1738V51.3819C205.459 51.6177 205.404 51.7984 205.301 51.9162C205.201 52.0341 205.059 52.097 204.895 52.097C204.73 52.097 204.597 52.0341 204.487 51.9162C204.385 51.7984 204.331 51.6177 204.331 51.3819V49.4802C204.331 49.2367 204.322 49.0403 204.3 48.8987C204.275 48.7495 204.229 48.6315 204.135 48.5295C204.049 48.4273 203.916 48.3801 203.736 48.3801C203.594 48.3801 203.452 48.4273 203.327 48.5137C203.203 48.6001 203.101 48.7181 203.03 48.8673C202.952 49.0403 202.912 49.3781 202.912 49.8574ZM197.326 49.7788C197.326 49.3152 197.224 48.9617 197.035 48.7023C196.84 48.4429 196.573 48.3173 196.245 48.3173C196.032 48.3173 195.845 48.3723 195.679 48.4901C195.515 48.6081 195.39 48.7731 195.304 49.0009C195.217 49.2209 195.17 49.4881 195.17 49.7788C195.17 50.0774 195.217 50.329 195.304 50.5489C195.39 50.7689 195.515 50.9419 195.672 51.0597C195.836 51.1775 196.025 51.2325 196.245 51.2325C196.573 51.2325 196.84 51.1069 197.035 50.8475C197.231 50.5882 197.326 50.2346 197.326 49.7788ZM198.423 49.7788C198.423 50.1168 198.376 50.4232 198.274 50.7061C198.172 50.9889 198.023 51.2325 197.835 51.4369C197.646 51.6412 197.411 51.7984 197.144 51.9084C196.878 52.0184 196.58 52.0734 196.245 52.0734C195.914 52.0734 195.617 52.0184 195.35 51.9084C195.084 51.7984 194.857 51.6412 194.662 51.4369C194.465 51.2325 194.324 50.9889 194.222 50.7061C194.12 50.4232 194.074 50.1168 194.074 49.7788C194.074 49.4331 194.12 49.1267 194.222 48.8359C194.324 48.5531 194.473 48.3094 194.662 48.1051C194.849 47.9008 195.077 47.7516 195.35 47.6416C195.617 47.5314 195.914 47.4764 196.245 47.4764C196.573 47.4764 196.871 47.5314 197.144 47.6416C197.411 47.7516 197.646 47.9087 197.835 48.113C198.03 48.3173 198.172 48.5609 198.274 48.8437C198.376 49.1267 198.423 49.441 198.423 49.7788ZM193.352 50.054C193.352 50.2504 193.305 50.4546 193.212 50.6825C193.117 50.9103 192.977 51.1305 192.781 51.3427C192.584 51.5627 192.333 51.7355 192.029 51.8691C191.722 52.0026 191.363 52.0734 190.954 52.0734C190.65 52.0734 190.368 52.042 190.108 51.979C189.858 51.9162 189.622 51.8219 189.42 51.6962C189.216 51.5705 189.02 51.3977 188.847 51.1933C188.69 51.0047 188.557 50.7925 188.455 50.5568C188.345 50.3211 188.267 50.0696 188.212 49.8024C188.157 49.5352 188.134 49.2524 188.134 48.9459C188.134 48.4587 188.204 48.0187 188.337 47.6336C188.47 47.2486 188.674 46.9186 188.925 46.6435C189.184 46.3685 189.482 46.1641 189.826 46.0149C190.171 45.8735 190.539 45.8027 190.923 45.8027C191.401 45.8027 191.816 45.8971 192.193 46.0935C192.561 46.2899 192.843 46.5335 193.047 46.8164C193.243 47.1072 193.345 47.3744 193.345 47.6336C193.345 47.7751 193.298 47.9008 193.203 48.003C193.11 48.113 192.992 48.1601 192.859 48.1601C192.71 48.1601 192.593 48.1208 192.515 48.0501C192.435 47.9715 192.349 47.8458 192.264 47.665C192.107 47.3664 191.927 47.1386 191.715 46.9893C191.503 46.84 191.245 46.7693 190.939 46.7693C190.453 46.7693 190.062 46.9578 189.771 47.3428C189.482 47.728 189.34 48.2701 189.34 48.9773C189.34 49.4488 189.403 49.8418 189.536 50.156C189.662 50.4704 189.842 50.7061 190.077 50.8553C190.312 51.0125 190.586 51.0833 190.901 51.0833C191.245 51.0833 191.527 50.9969 191.762 50.8239C191.997 50.6511 192.177 50.3918 192.295 50.054C192.342 49.8968 192.404 49.7632 192.482 49.661C192.553 49.5588 192.679 49.5117 192.843 49.5117C192.984 49.5117 193.11 49.5588 193.203 49.6688C193.298 49.7788 193.352 49.9046 193.352 50.054ZM184.325 49.4095H186.308C186.285 49.0245 186.183 48.7337 186.01 48.5451C185.838 48.3565 185.603 48.2623 185.321 48.2623C185.046 48.2623 184.827 48.3565 184.647 48.5531C184.467 48.7495 184.365 49.0323 184.325 49.4095ZM186.456 50.054H184.318C184.318 50.3132 184.373 50.5332 184.467 50.7297C184.56 50.9261 184.693 51.0755 184.851 51.1697C185.015 51.2719 185.188 51.3191 185.384 51.3191C185.517 51.3191 185.634 51.3033 185.744 51.2719C185.854 51.2405 185.956 51.1933 186.057 51.1225C186.159 51.0519 186.254 50.9811 186.34 50.9025C186.425 50.8239 186.536 50.7218 186.669 50.5882C186.723 50.5411 186.802 50.5097 186.904 50.5097C187.013 50.5097 187.107 50.5411 187.178 50.6039C187.249 50.6668 187.28 50.7533 187.28 50.8711C187.28 50.9733 187.24 51.0911 187.162 51.2247C187.084 51.3583 186.967 51.4919 186.809 51.6177C186.653 51.7434 186.456 51.8455 186.223 51.932C185.987 52.0184 185.712 52.0576 185.408 52.0576C184.702 52.0576 184.161 51.8534 183.769 51.4369C183.377 51.0205 183.19 50.4625 183.19 49.7552C183.19 49.4252 183.237 49.1109 183.33 48.8281C183.425 48.5451 183.565 48.3015 183.745 48.0973C183.925 47.893 184.154 47.7358 184.427 47.6258C184.702 47.5158 184.991 47.4608 185.321 47.4608C185.752 47.4608 186.112 47.555 186.418 47.7436C186.723 47.9322 186.951 48.168 187.107 48.4665C187.256 48.7651 187.335 49.0638 187.335 49.3702C187.335 49.6532 187.256 49.8418 187.1 49.9204C186.967 50.0146 186.747 50.054 186.456 50.054ZM181.199 51.3897V46.4943C181.199 46.2663 181.246 46.0935 181.348 45.9835C181.443 45.8655 181.576 45.8105 181.74 45.8105C181.905 45.8105 182.038 45.8655 182.14 45.9835C182.242 46.1013 182.289 46.2663 182.289 46.4943V51.3897C182.289 51.6177 182.233 51.7905 182.131 51.9005C182.029 52.0184 181.896 52.0734 181.74 52.0734C181.583 52.0734 181.45 52.0105 181.348 51.8926C181.246 51.7748 181.199 51.6098 181.199 51.3897ZM177.251 49.8024C177.251 50.2504 177.351 50.5961 177.548 50.8397C177.744 51.0833 178.01 51.2011 178.332 51.2011C178.605 51.2011 178.841 51.0755 179.045 50.8319C179.24 50.5882 179.342 50.2346 179.342 49.771C179.342 49.4724 179.303 49.2209 179.216 49.0009C179.138 48.7887 179.021 48.6159 178.865 48.5059C178.707 48.3879 178.535 48.3329 178.332 48.3329C178.128 48.3329 177.939 48.3879 177.775 48.5059C177.611 48.6237 177.484 48.7887 177.391 49.0167C177.297 49.2367 177.251 49.496 177.251 49.8024ZM177.195 46.4471V48.1759C177.399 47.9558 177.611 47.783 177.822 47.665C178.033 47.5472 178.299 47.4922 178.614 47.4922C178.974 47.4922 179.296 47.5786 179.569 47.7594C179.844 47.9401 180.055 48.1994 180.204 48.5295C180.353 48.8673 180.431 49.2681 180.431 49.7318C180.431 50.0696 180.392 50.384 180.306 50.6747C180.22 50.9575 180.102 51.2091 179.938 51.4213C179.78 51.6333 179.585 51.7905 179.358 51.9084C179.131 52.0262 178.88 52.0812 178.605 52.0812C178.441 52.0812 178.277 52.0576 178.135 52.0184C177.995 51.9791 177.861 51.9241 177.759 51.8534C177.657 51.7905 177.564 51.7198 177.493 51.6412C177.422 51.5705 177.32 51.4605 177.202 51.3191V51.4291C177.202 51.6412 177.156 51.7984 177.054 51.9084C176.952 52.0184 176.827 52.0734 176.678 52.0734C176.521 52.0734 176.403 52.0184 176.31 51.9084C176.216 51.7984 176.168 51.6412 176.168 51.4291V46.5021C176.168 46.2743 176.216 46.1013 176.301 45.9835C176.388 45.8655 176.514 45.8105 176.678 45.8105C176.842 45.8105 176.976 45.8655 177.062 45.9755C177.149 46.0857 177.195 46.2427 177.195 46.4471ZM174.116 49.8024C173.959 49.8652 173.723 49.9282 173.419 49.991C173.113 50.0618 172.901 50.109 172.784 50.1404C172.666 50.1718 172.556 50.2346 172.447 50.329C172.337 50.4232 172.289 50.5489 172.289 50.7139C172.289 50.8869 172.353 51.0283 172.478 51.1541C172.604 51.2719 172.768 51.3347 172.972 51.3347C173.183 51.3347 173.387 51.2877 173.567 51.1855C173.747 51.0833 173.881 50.9575 173.967 50.8083C174.069 50.6354 174.116 50.3525 174.116 49.9596V49.8024ZM174.187 51.4369C173.92 51.6491 173.67 51.8062 173.419 51.9162C173.168 52.0184 172.893 52.0734 172.588 52.0734C172.306 52.0734 172.062 52.0184 171.851 51.9005C171.64 51.7826 171.474 51.6333 171.357 51.4369C171.241 51.2405 171.185 51.0283 171.185 50.8003C171.185 50.4939 171.279 50.2268 171.467 50.0146C171.656 49.7946 171.914 49.6532 172.251 49.5746C172.322 49.5588 172.493 49.5196 172.768 49.4646C173.042 49.4095 173.277 49.3545 173.473 49.3074C173.67 49.2602 173.881 49.2053 174.107 49.1345C174.092 48.8359 174.038 48.6159 173.936 48.4823C173.834 48.3409 173.621 48.2701 173.301 48.2701C173.026 48.2701 172.815 48.3094 172.673 48.3879C172.533 48.4665 172.415 48.5845 172.313 48.7495C172.211 48.9067 172.14 49.0167 172.102 49.0638C172.062 49.1109 171.969 49.1424 171.836 49.1424C171.71 49.1424 171.608 49.1031 171.514 49.0167C171.428 48.9381 171.381 48.8281 171.381 48.7023C171.381 48.5059 171.452 48.3094 171.585 48.1208C171.718 47.9322 171.929 47.783 172.22 47.6572C172.509 47.5394 172.87 47.4764 173.293 47.4764C173.772 47.4764 174.147 47.5394 174.421 47.6494C174.696 47.7672 174.891 47.948 175.002 48.2073C175.111 48.4587 175.173 48.7967 175.173 49.2131C175.173 49.4802 175.173 49.7002 175.173 49.8888C175.173 50.0774 175.173 50.2818 175.166 50.5097C175.166 50.7218 175.197 50.9419 175.268 51.1697C175.337 51.3977 175.369 51.5469 175.369 51.6098C175.369 51.7276 175.315 51.8298 175.213 51.9241C175.102 52.0184 174.986 52.0656 174.853 52.0656C174.742 52.0656 174.633 52.0105 174.523 51.9005C174.429 51.8062 174.311 51.6491 174.187 51.4369ZM170.441 50.054C170.441 50.2504 170.393 50.4546 170.3 50.6825C170.206 50.9103 170.064 51.1305 169.869 51.3427C169.673 51.5627 169.422 51.7355 169.116 51.8691C168.81 52.0026 168.45 52.0734 168.043 52.0734C167.737 52.0734 167.455 52.042 167.196 51.979C166.945 51.9162 166.711 51.8219 166.507 51.6962C166.303 51.5705 166.108 51.3977 165.935 51.1933C165.779 51.0047 165.646 50.7925 165.535 50.5568C165.426 50.3211 165.348 50.0696 165.293 49.8024C165.238 49.5352 165.215 49.2524 165.215 48.9459C165.215 48.4587 165.284 48.0187 165.417 47.6336C165.551 47.2486 165.755 46.9186 166.006 46.6435C166.264 46.3685 166.563 46.1641 166.907 46.0149C167.251 45.8735 167.62 45.8027 168.004 45.8027C168.481 45.8027 168.897 45.8971 169.274 46.0935C169.642 46.2899 169.924 46.5335 170.127 46.8164C170.324 47.1072 170.424 47.3744 170.424 47.6336C170.424 47.7751 170.377 47.9008 170.284 48.003C170.19 48.113 170.073 48.1601 169.94 48.1601C169.791 48.1601 169.673 48.1208 169.594 48.0501C169.516 47.9715 169.429 47.8458 169.343 47.665C169.187 47.3664 169.007 47.1386 168.795 46.9893C168.583 46.84 168.325 46.7693 168.019 46.7693C167.533 46.7693 167.142 46.9578 166.852 47.3428C166.563 47.728 166.421 48.2701 166.421 48.9773C166.421 49.4488 166.483 49.8418 166.616 50.156C166.743 50.4704 166.923 50.7061 167.158 50.8553C167.393 51.0125 167.666 51.0833 167.98 51.0833C168.325 51.0833 168.607 50.9969 168.843 50.8239C169.077 50.6511 169.258 50.3918 169.376 50.054C169.422 49.8968 169.485 49.7632 169.563 49.661C169.633 49.5588 169.76 49.5117 169.924 49.5117C170.064 49.5117 170.19 49.5588 170.284 49.6688C170.393 49.7788 170.441 49.9046 170.441 50.054Z" fill="#3777BC"/>
<path d="M233.45 52.0437C233.119 52.0437 232.83 51.9337 232.588 51.7136C232.344 51.4936 232.227 51.1794 232.227 50.7864C232.227 50.4485 232.344 50.1577 232.571 49.9141C232.799 49.6706 233.088 49.5449 233.425 49.5449C233.763 49.5449 234.052 49.6627 234.287 49.9063C234.522 50.1499 234.64 50.4407 234.64 50.7864C234.64 51.1794 234.522 51.4858 234.287 51.7136C234.052 51.9258 233.77 52.0437 233.45 52.0437Z" fill="#ED1C24"/>
<path d="M4.28125 51.2031H115.267V51.7925H4.28125V51.2031Z" fill="#3777BC"/>
<path d="M221.967 13.3055C223.135 11.3961 224.694 9.91876 226.521 8.92081C228.354 7.91499 230.462 7.40423 232.702 7.44351H232.711C233.306 7.48281 233.878 7.56138 234.442 7.68711C237.349 8.3079 239.864 9.9502 241.605 12.1976C243.343 14.4449 244.307 17.2895 244.104 20.3069C244.065 20.8727 243.987 21.4464 243.869 22.0122V22.02C243.712 22.6643 243.454 23.5444 243.086 24.3538C242.991 24.566 242.889 24.7703 242.779 24.9589L242.388 24.7545C242.497 24.566 242.591 24.3696 242.686 24.1652C243.039 23.3951 243.288 22.5385 243.438 21.9178C243.555 21.3678 243.634 20.8177 243.665 20.2755C243.861 17.3681 242.928 14.6256 241.252 12.4647C239.575 10.296 237.146 8.70864 234.349 8.11144C233.807 7.99357 233.251 7.91499 232.687 7.8757C230.524 7.84428 228.495 8.33146 226.732 9.29799C224.977 10.2567 223.472 11.6868 222.344 13.5256C222.163 13.8399 221.991 14.162 221.834 14.492C221.732 14.6964 221.647 14.9086 221.561 15.1207L221.168 14.9164C221.254 14.7042 221.341 14.5 221.443 14.3035C221.607 13.9656 221.78 13.6356 221.967 13.3055ZM238.517 22.7823C239.176 21.525 239.409 20.1655 239.285 18.8454C239.176 17.6903 238.792 16.5666 238.172 15.5921C237.561 14.6178 236.714 13.777 235.697 13.1877C234.489 12.4883 233.032 12.1347 231.403 12.284C230.328 12.4412 229.318 12.8105 228.424 13.3684C227.555 13.9184 226.794 14.665 226.199 15.5765C226.074 15.7807 225.956 15.9929 225.854 16.1973C225.752 16.4094 225.659 16.6216 225.572 16.8338C225.533 16.936 225.493 17.0224 225.455 17.1166L225.062 16.9124C225.093 16.8338 225.126 16.7552 225.164 16.6688C225.259 16.433 225.353 16.213 225.462 15.9929C225.572 15.7729 225.69 15.5529 225.823 15.3329V15.325C226.458 14.3506 227.265 13.5649 228.19 12.9755C229.129 12.3783 230.195 11.9854 231.339 11.8204H231.347C233.086 11.6554 234.631 12.0325 235.915 12.7791C237.005 13.4077 237.897 14.2956 238.548 15.3329C239.198 16.3701 239.606 17.5567 239.724 18.7825C239.857 20.1813 239.606 21.627 238.909 22.9629L238.517 22.7823Z" fill="black"/>
<path d="M222.133 15.4729C222.157 15.4179 222.212 15.3235 222.235 15.2685C222.87 13.7205 223.865 12.3454 225.103 11.2531C226.333 10.1687 227.814 9.35146 229.437 8.91928H229.444H229.452C232.319 8.1492 235.243 8.62854 237.641 10.0194C240.038 11.4103 241.91 13.7048 242.679 16.5808V16.5886C243.047 17.9559 243.141 19.386 242.953 20.8084C242.789 22.0499 242.405 23.2836 241.786 24.4544L239.506 23.2915C239.568 23.1736 239.63 23.0557 239.686 22.9457C239.772 22.7649 239.85 22.5843 239.921 22.3957C240.243 21.5706 240.422 20.7141 240.469 19.8575C240.516 18.9774 240.422 18.1053 240.194 17.2566C239.912 16.2114 239.435 15.2213 238.769 14.3491C238.158 13.5476 237.39 12.8483 236.481 12.3061L236.473 12.3139L236.34 12.2353L236.316 12.2196C235.36 11.6696 234.333 11.3317 233.3 11.1981C232.272 11.0645 231.231 11.1274 230.236 11.371L230.079 11.4103C228.84 11.7403 227.712 12.3611 226.78 13.1861C225.832 14.0191 225.072 15.0721 224.579 16.2508L224.57 16.2586C224.524 16.3764 224.492 16.455 224.446 16.573L222.133 15.4729Z" fill="black"/>
<path fill-rule="evenodd" clip-rule="evenodd" d="M223.968 17.7198L221.633 16.6511L222.001 15.8418L224.337 16.9027L223.968 17.7198Z" fill="black"/>
<path fill-rule="evenodd" clip-rule="evenodd" d="M221.428 18.9622L221.035 18.7816L221.827 17.0371L222.218 17.2177L221.428 18.9622ZM222.116 19.2765L221.725 19.0958L222.516 17.3513L222.909 17.5321L222.116 19.2765ZM222.807 19.5909L222.414 19.4101L223.206 17.6657L223.597 17.8465L222.807 19.5909Z" fill="black"/>
<path d="M222.005 29.9722C219.771 29.9094 217.718 29.2965 215.939 28.2121C214.154 27.1198 212.664 25.5482 211.574 23.5837L211.567 23.5759C211.308 23.0416 211.09 22.4994 210.908 21.9493C209.993 19.1205 210.157 16.1108 211.23 13.4706C212.304 10.8381 214.278 8.57505 216.982 7.2392C217.491 6.98774 218.024 6.77558 218.572 6.59485H218.581C219.216 6.40625 220.108 6.19409 220.986 6.10765C221.212 6.08408 221.441 6.07622 221.667 6.06836L221.691 6.5084C221.479 6.5084 221.252 6.52412 221.032 6.5477C220.195 6.62627 219.325 6.83844 218.721 7.01918C218.181 7.19205 217.671 7.40421 217.185 7.63995C214.576 8.9208 212.68 11.1053 211.645 13.6434C210.611 16.1815 210.455 19.0811 211.341 21.8157C211.512 22.3422 211.723 22.8686 211.974 23.3794C213.024 25.2732 214.467 26.7898 216.183 27.8428C217.891 28.8879 219.873 29.4772 222.029 29.5322C222.389 29.5322 222.757 29.5165 223.117 29.4929C223.344 29.4772 223.572 29.4536 223.799 29.4222L223.823 29.87C223.603 29.9016 223.376 29.925 223.157 29.9408C222.764 29.9566 222.389 29.9722 222.005 29.9722ZM221.911 10.8617C220.5 10.9167 219.207 11.3961 218.133 12.1661C217.193 12.8419 216.418 13.7377 215.877 14.7593C215.337 15.7808 215.038 16.9281 215.038 18.1146C215.038 19.5133 215.462 20.9592 216.41 22.295C217.084 23.1516 217.906 23.8431 218.839 24.3303C219.756 24.8096 220.774 25.1004 221.863 25.1632C222.107 25.171 222.342 25.1632 222.569 25.1474C222.804 25.1318 223.031 25.1082 223.259 25.0768C223.361 25.061 223.461 25.0452 223.556 25.0374L223.579 25.4854C223.494 25.4932 223.408 25.509 223.321 25.5246C223.077 25.564 222.835 25.5876 222.593 25.6032C222.342 25.619 222.098 25.6268 221.84 25.619H221.832C220.68 25.5561 219.591 25.2496 218.619 24.7388C217.633 24.2203 216.763 23.4894 216.05 22.5778L216.041 22.57C215.031 21.1477 214.584 19.6076 214.584 18.1224C214.584 16.8651 214.905 15.6472 215.477 14.5549C216.05 13.4706 216.872 12.5276 217.867 11.8125C219.003 11.0032 220.382 10.4924 221.878 10.4295L221.911 10.8617Z" fill="black"/>
<path d="M223.803 28.738C223.74 28.7458 223.63 28.7458 223.576 28.7536C221.922 28.9736 220.237 28.8008 218.67 28.2743C217.119 27.7479 215.677 26.8678 214.486 25.6812V25.6733L214.478 25.6655C212.386 23.5595 211.336 20.7857 211.336 18.0039C211.336 15.2301 212.386 12.4484 214.486 10.3503L214.493 10.3425C215.49 9.34453 216.68 8.53516 218.004 7.99296C219.156 7.51363 220.417 7.23073 221.733 7.18359L221.867 9.74528C221.734 9.75314 221.609 9.75314 221.476 9.76886C221.272 9.78458 221.076 9.80814 220.88 9.83957C220.002 9.97316 219.171 10.2482 218.412 10.6332C217.628 11.034 216.915 11.5526 216.304 12.1655C215.543 12.9278 214.924 13.8393 214.509 14.853C214.125 15.7801 213.907 16.8018 213.883 17.8625H213.891L213.883 18.0197L213.874 18.0433C213.874 19.1512 214.102 20.2121 214.502 21.1786C214.901 22.1372 215.473 23.0095 216.187 23.7481L216.296 23.8582C217.204 24.7697 218.303 25.4375 219.485 25.8383C220.683 26.247 221.969 26.3806 223.23 26.2155H223.247C223.372 26.1998 223.458 26.184 223.583 26.1684L223.803 28.738Z" fill="black"/>
<path fill-rule="evenodd" clip-rule="evenodd" d="M224.823 26.0332L225.074 28.587L224.181 28.6734L223.938 26.1196L224.823 26.0332Z" fill="black"/>
<path fill-rule="evenodd" clip-rule="evenodd" d="M227.162 27.6044L227.202 28.0366L225.297 28.2252L225.259 27.793L227.162 27.6044ZM227.091 26.85L227.131 27.2822L225.226 27.4708L225.188 27.0386L227.091 26.85ZM227.022 26.0957L227.06 26.5279L225.157 26.7165L225.117 26.2843L227.022 26.0957Z" fill="black"/>
<path fill-rule="evenodd" clip-rule="evenodd" d="M236.184 21.7121C238.285 25.5938 238.144 29.9629 235.887 33.7426C231.922 39.6833 223.482 41.0112 218.053 36.1078C217.239 35.3378 215.969 33.9311 215.656 32.7368C215.396 31.7703 215.789 30.9844 216.384 30.4816C217.481 29.5543 218.742 29.8529 219.588 31.118C222.432 36.0607 230.136 36.1471 232.753 30.395C233.575 28.3284 233.52 26.0732 232.494 24.038C232.259 23.598 231.992 23.205 231.695 22.8357C231.35 22.3957 231.1 22.0735 231.013 21.4841C230.723 19.4253 233.231 18.011 234.916 19.8811C235.401 20.4468 235.817 21.0677 236.184 21.7121Z" fill="white"/>
<path fill-rule="evenodd" clip-rule="evenodd" d="M226.772 19.543C227.924 19.543 228.857 20.4781 228.857 21.6332C228.857 22.7883 227.924 23.7234 226.772 23.7234C225.62 23.7234 224.688 22.7883 224.688 21.6332C224.688 20.4781 225.62 19.543 226.772 19.543Z" fill="#3777BC"/>
<path d="M236.381 21.6024C237.447 23.5749 237.94 25.6651 237.893 27.7475C237.838 29.8455 237.227 31.9278 236.075 33.853L236.067 33.8609C235.738 34.356 235.378 34.8196 234.994 35.2439C233.004 37.4599 230.324 38.8193 227.518 39.2044C224.705 39.5894 221.768 39.0078 219.259 37.3184C218.789 37.0042 218.335 36.6504 217.904 36.2576L217.896 36.2498C217.418 35.7941 216.783 35.1261 216.275 34.4032C216.141 34.2146 216.015 34.026 215.906 33.8295L216.275 33.5859C216.384 33.7745 216.501 33.9552 216.635 34.1438C217.128 34.8353 217.739 35.4797 218.202 35.9197C218.624 36.2969 219.055 36.6426 219.51 36.9412C221.923 38.56 224.752 39.1258 227.463 38.7564C230.174 38.3793 232.753 37.067 234.672 34.9375C235.041 34.521 235.393 34.081 235.707 33.6095C236.819 31.7472 237.407 29.7434 237.454 27.7239C237.501 25.7201 237.023 23.7006 235.997 21.799C235.817 21.4846 235.62 21.1703 235.417 20.8717C235.284 20.6831 235.151 20.4945 235.009 20.3217L235.385 20.0781C235.527 20.2588 235.651 20.4395 235.785 20.6203C235.989 20.9503 236.193 21.2725 236.381 21.6024ZM219.925 31.2364C220.678 32.4386 221.743 33.3187 222.942 33.8688C223.992 34.3482 225.152 34.576 226.312 34.5368C227.463 34.4896 228.608 34.183 229.626 33.5859C230.833 32.8865 231.868 31.8022 232.556 30.3013C232.964 29.2876 233.144 28.2267 233.105 27.1738C233.066 26.1444 232.8 25.1071 232.314 24.1328C232.196 23.9206 232.079 23.7163 231.945 23.5277C231.812 23.3313 231.679 23.1427 231.539 22.9619C231.475 22.8755 231.413 22.7969 231.35 22.7183L231.719 22.4748C231.765 22.5455 231.821 22.6083 231.883 22.6791C232.039 22.8755 232.181 23.0719 232.314 23.2763C232.456 23.4805 232.58 23.6927 232.698 23.9206V23.9284C233.215 24.9657 233.497 26.058 233.544 27.1582C233.591 28.2739 233.395 29.3976 232.964 30.4663L232.956 30.4741C232.236 32.0614 231.131 33.2245 229.845 33.963C228.757 34.5918 227.542 34.9217 226.319 34.9689C225.096 35.0161 223.866 34.7724 222.754 34.2616C221.484 33.6802 220.356 32.7373 219.55 31.4642L219.925 31.2364Z" fill="black"/>
<path d="M234.428 20.6602C234.467 20.7073 234.521 20.8017 234.552 20.8487C235.571 22.1768 236.261 23.7249 236.59 25.3514C236.912 26.9622 236.872 28.6517 236.441 30.2784L236.433 30.2862V30.2941C235.666 33.1701 233.793 35.4646 231.395 36.8554C228.997 38.2463 226.075 38.7257 223.207 37.9477H223.198C221.835 37.5862 220.55 36.9498 219.414 36.0775C218.42 35.3153 217.549 34.3644 216.844 33.2407L218.991 31.842C219.062 31.952 219.132 32.062 219.202 32.1722C219.312 32.3372 219.437 32.5022 219.555 32.6514C220.112 33.3429 220.762 33.9323 221.475 34.396C222.212 34.8752 223.011 35.2367 223.857 35.4567C224.899 35.7397 225.996 35.8103 227.077 35.6689C228.073 35.5353 229.06 35.221 229.985 34.7102V34.7024L230.118 34.6316L230.141 34.6238C231.097 34.0659 231.897 33.3429 232.532 32.5178C233.166 31.6928 233.628 30.7577 233.91 29.7676L233.95 29.6104C234.279 28.3689 234.31 27.0802 234.068 25.8543C233.817 24.6128 233.291 23.4263 232.516 22.4126L232.507 22.4046C232.429 22.3026 232.383 22.2396 232.296 22.1374L234.428 20.6602Z" fill="black"/>
<path fill-rule="evenodd" clip-rule="evenodd" d="M231.574 21.1298L233.659 19.6367L234.176 20.3597L232.091 21.8527L231.574 21.1298Z" fill="black"/>
<path fill-rule="evenodd" clip-rule="evenodd" d="M231.761 18.3002L232.114 18.0488L233.227 19.6047L232.874 19.8561L231.761 18.3002ZM231.151 18.7404L231.502 18.4888L232.616 20.0447L232.263 20.2962L231.151 18.7404ZM230.531 19.1803L230.884 18.9289L231.997 20.4848L231.644 20.7362L230.531 19.1803Z" fill="black"/>
</svg>
