<svg id="Twitter" xmlns="http://www.w3.org/2000/svg" width="37.226" height="37.226" viewBox="0 0 37.226 37.226">
  <path id="Path_34" data-name="Path 34" d="M0,18.613A18.613,18.613,0,1,1,18.613,37.226,18.613,18.613,0,0,1,0,18.613Z" fill="#55acee"/>
  <path id="Path_35" data-name="Path 35" d="M20.749,18.361l.039.644-.651-.079a10.589,10.589,0,0,1-6.2-3.049l-.859-.854-.221.631a3.793,3.793,0,0,0,.807,3.891c.521.552.4.631-.495.3a1.537,1.537,0,0,0-.612-.145,4.711,4.711,0,0,0,.469,1.761,4.2,4.2,0,0,0,1.784,1.682l.638.3-.755.013c-.729,0-.755.013-.677.289a3.936,3.936,0,0,0,2.435,2.156l.807.276-.7.421a7.329,7.329,0,0,1-3.489.973A3.855,3.855,0,0,0,12,27.68a9.9,9.9,0,0,0,2.513,1.157,11,11,0,0,0,8.541-.973,11.43,11.43,0,0,0,4.335-5.1,13.557,13.557,0,0,0,.885-3.943c0-.6.039-.683.768-1.406a8.6,8.6,0,0,0,.911-1.012c.13-.25.117-.25-.547-.026-1.107.394-1.263.342-.716-.25a3.824,3.824,0,0,0,.885-1.406c0-.039-.2.026-.417.145a7.262,7.262,0,0,1-1.146.447l-.7.223-.638-.434a5.3,5.3,0,0,0-1.107-.578,4.447,4.447,0,0,0-2.278.053A3.763,3.763,0,0,0,20.749,18.361Z" transform="translate(-2.693 -3.232)" fill="#fff"/>
</svg>
